<svg width="512" height="512" xmlns="http://www.w3.org/2000/svg" xmlns:svg="http://www.w3.org/2000/svg">
 <g>
  <title>Layer 1</title>
  <g id="svg_3"/>
  <g id="svg_4"/>
  <g id="svg_5"/>
  <g id="svg_6"/>
  <g id="svg_7"/>
  <g id="svg_8"/>
  <g id="svg_9"/>
  <g id="svg_10"/>
  <g id="svg_11"/>
  <g id="svg_12"/>
  <g id="svg_13"/>
  <g id="svg_14"/>
  <g id="svg_15"/>
  <g id="svg_16"/>
  <g id="svg_17"/>
  <path stroke="#333333" stroke-width="60" id="svg_1" fill="#3f3f3f" d="m257,55.55551c-79.99328,0 -145,65.00834 -145,145c0,27.06667 7.49328,53.40914 21.75081,76.12581l113.41981,185.61128c1.93494,3.14167 4.83494,5.07581 8.21908,5.55914c4.59006,0.72419 9.66747,-1.20833 12.325,-5.8l113.74445,-187.30456c13.53172,-22.23253 20.54086,-48.09086 20.54086,-74.19167c0,-79.99167 -65.00672,-145 -145,-145zm0,217.50001c-40.59839,0 -72.5,-32.86667 -72.5,-72.5c0,-39.87581 32.6242,-72.5 72.5,-72.5s72.5,32.6242 72.5,72.5c0,39.39167 -31.41747,72.5 -72.5,72.5z"/>
  <path stroke-width="60" stroke="null" id="svg_2" fill="#ffd4aa" d="m255,55.55551l0,72.5c39.87581,0 72.5,32.6242 72.5,72.5c0,39.39167 -31.41747,72.5 -72.5,72.5l0,194.9372c4.12364,0.09586 8.36408,-1.88097 10.71389,-5.94097l113.74445,-187.30456c13.53253,-22.23253 20.54167,-48.09086 20.54167,-74.19167c0,-79.99167 -65.00672,-145 -145,-145z"/>
  <path stroke="null" id="svg_19" stroke-width="60" fill="#ffaaaa" d="m256.51134,55.70019l0,72.5c-38.22576,0 -69.49999,32.62419 -69.49999,72.5c0,39.39167 30.11744,72.5 69.49999,72.5l0,194.9372c-3.953,0.09587 -8.01798,-1.88097 -10.27055,-5.94097l-109.03778,-187.30456c-12.97256,-22.23253 -19.69167,-48.09086 -19.69167,-74.19167c0,-79.99167 62.31678,-145 138.99999,-145z"/>
 </g>

</svg>